<svg width="24" height="25" viewBox="0 0 24 25" fill="none" xmlns="http://www.w3.org/2000/svg">
<path d="M20.8401 5.2671C20.3294 4.7561 19.7229 4.35075 19.0555 4.07418C18.388 3.79762 17.6726 3.65527 16.9501 3.65527C16.2276 3.65527 15.5122 3.79762 14.8448 4.07418C14.1773 4.35075 13.5709 4.7561 13.0601 5.2671L12.0001 6.3271L10.9401 5.2671C9.90843 4.23541 8.50915 3.65581 7.05012 3.65581C5.59109 3.65581 4.19181 4.23541 3.16012 5.2671C2.12843 6.29879 1.54883 7.69807 1.54883 9.1571C1.54883 10.6161 2.12843 12.0154 3.16012 13.0471L4.22012 14.1071L12.0001 21.8871L19.7801 14.1071L20.8401 13.0471C21.3511 12.5363 21.7565 11.9299 22.033 11.2625C22.3096 10.595 22.4519 9.87959 22.4519 9.1571C22.4519 8.43461 22.3096 7.7192 22.033 7.05174C21.7565 6.38428 21.3511 5.77786 20.8401 5.2671V5.2671Z" stroke="black" stroke-width="2" stroke-linecap="round" stroke-linejoin="round"/>
</svg>
