<svg width="24" height="24" viewBox="0 0 24 24" fill="none" xmlns="http://www.w3.org/2000/svg">
<path d="M20.1429 2C20.5768 2 20.9354 2.32246 20.9922 2.74083L21 2.85714V21.1429C21 21.6162 20.6162 22 20.1429 22C19.7089 22 19.3503 21.6775 19.2935 21.2592L19.2857 21.1429V15.4286H16.7143C16.2803 15.4286 15.9217 15.1061 15.8649 14.6878L15.8571 14.5714V6.28571C15.8571 3.91878 17.7759 2 20.1429 2ZM11.2857 2C11.7197 2 12.0783 2.32246 12.1351 2.74083L12.1429 2.85714V7.42857C12.1429 9.66009 10.5439 11.5182 8.42926 11.9197L8.42857 21.1429C8.42857 21.6162 8.04481 22 7.57143 22C7.13749 22 6.77887 21.6775 6.72211 21.2592L6.71429 21.1429L6.71473 11.9199C4.67504 11.5331 3.1149 9.79143 3.00607 7.66623L3 7.42857V2.85714C3 2.38376 3.38376 2 3.85714 2C4.29109 2 4.6497 2.32246 4.70646 2.74083L4.71429 2.85714V7.42857C4.71429 8.70808 5.55535 9.79109 6.71477 10.1551L6.71429 2.85714C6.71429 2.38376 7.09805 2 7.57143 2C8.00537 2 8.36399 2.32246 8.42074 2.74083L8.42857 2.85714L8.42922 10.1547C9.52366 9.81063 10.3342 8.82575 10.4209 7.63984L10.4286 7.42857V2.85714C10.4286 2.38376 10.8123 2 11.2857 2ZM19.2857 13.7143V3.86061C18.3457 4.19285 17.6566 5.05611 17.5787 6.08995L17.5714 6.28571V13.7143H19.2857Z" fill="black" stroke="black" stroke-width="0.3"/>
</svg>
