<svg width="1024" height="1024" viewBox="0 0 1024 1024" fill="none" xmlns="http://www.w3.org/2000/svg">
<path d="M514.007 345.742C509.571 345.742 505.942 342.113 505.942 337.677V238.081C505.942 233.645 509.571 230.016 514.007 230.016C518.442 230.016 522.071 233.645 522.071 238.081V337.677C522.071 342.153 518.483 345.742 514.007 345.742Z" fill="white"/>
<path d="M514.007 347.758C508.443 347.758 503.927 343.242 503.927 337.677V238.081C503.927 232.516 508.443 228 514.007 228C519.572 228 524.088 232.516 524.088 238.081V337.677C524.088 343.242 519.572 347.758 514.007 347.758ZM514.007 232.032C510.661 232.032 507.959 234.734 507.959 238.081V337.677C507.959 341.024 510.661 343.726 514.007 343.726C517.354 343.726 520.056 341.024 520.056 337.677V238.081C520.056 234.734 517.354 232.032 514.007 232.032Z" fill="white"/>
<path d="M387.837 382.153C383.401 382.153 379.772 378.524 379.772 374.089V294.532C379.772 290.097 383.401 286.468 387.837 286.468C392.272 286.468 395.901 290.097 395.901 294.532V374.089C395.901 378.565 392.313 382.153 387.837 382.153Z" fill="white"/>
<path d="M387.837 384.169C382.273 384.169 377.757 379.653 377.757 374.089V294.532C377.757 288.968 382.273 284.452 387.837 284.452C393.402 284.452 397.918 288.968 397.918 294.532V374.089C397.918 379.653 393.402 384.169 387.837 384.169ZM387.837 288.484C384.491 288.484 381.789 291.186 381.789 294.532V374.089C381.789 377.435 384.491 380.137 387.837 380.137C391.184 380.137 393.886 377.435 393.886 374.089V294.532C393.886 291.186 391.184 288.484 387.837 288.484Z" fill="white"/>
<path d="M640.176 382.154C635.74 382.154 632.111 378.525 632.111 374.09V294.533C632.111 290.098 635.74 286.469 640.176 286.469C644.611 286.469 648.24 290.098 648.24 294.533V374.09C648.24 378.565 644.611 382.154 640.176 382.154Z" fill="white"/>
<path d="M640.176 384.169C634.612 384.169 630.096 379.653 630.096 374.089V294.532C630.096 288.968 634.612 284.452 640.176 284.452C645.741 284.452 650.257 288.968 650.257 294.532V374.089C650.257 379.653 645.741 384.169 640.176 384.169ZM640.176 288.484C636.83 288.484 634.128 291.186 634.128 294.532V374.089C634.128 377.435 636.83 380.137 640.176 380.137C643.523 380.137 646.225 377.435 646.225 374.089V294.532C646.225 291.186 643.523 288.484 640.176 288.484Z" fill="white"/>
<path d="M523.885 405.714C531.869 407.004 539.893 407.77 547.837 409.545C605.014 422.286 651.466 471.399 660.861 529.262C667.756 571.682 658.482 610.311 632.836 644.786C596.224 694.061 559.409 743.093 522.796 792.286C521.022 794.665 519.167 794.988 516.506 795.351C510.014 796.198 506.143 793.657 502.232 788.375C467.191 740.996 431.949 693.778 396.506 646.722C374.893 618.012 363.361 585.915 365.175 550.069C368.24 490.553 397.232 447.286 450.216 420.23C466.264 412.045 483.562 407.73 501.587 406.319C502.433 406.238 503.28 405.915 504.167 405.714C510.699 405.714 517.312 405.714 523.885 405.714ZM514.127 505.391C486.99 505.351 464.691 527.488 464.57 554.544C464.449 581.883 486.627 604.262 513.885 604.302C541.022 604.343 563.32 582.246 563.441 555.149C563.562 527.77 541.385 505.432 514.127 505.391Z" fill="white"/>
<path d="M377.232 657.73C351.103 623.012 338.926 585.189 340.942 545.31C343.523 495.149 362.111 454.585 396.265 424.02C394.652 423.738 392.999 423.456 391.345 423.254C341.789 416.278 292.232 409.101 242.757 401.681C237.232 400.835 233.402 401.681 229.974 406.077C228.644 407.891 227.716 409.222 228.079 411.681C235.62 463.254 242.958 514.827 250.539 566.359C255.861 602.488 273.482 631.238 303.12 652.609C328.16 670.633 359.692 678.012 390.055 674.746C385.781 669.101 381.547 663.456 377.232 657.73Z" fill="white"/>
<path d="M794.493 406.076C791.105 401.681 787.234 400.834 781.71 401.681C732.194 409.1 682.678 416.278 633.122 423.254C632.436 423.334 631.751 423.455 631.105 423.576C658.928 449.302 678.646 483.858 684.734 521.56C692.718 570.753 681.751 615.874 652.194 655.673C647.396 662.165 642.517 668.616 637.718 675.108C667.073 677.528 697.275 670.028 721.428 652.649C751.065 631.278 768.686 602.528 774.009 566.399C781.589 514.866 788.928 463.294 796.468 411.721C796.831 409.221 795.904 407.891 794.493 406.076Z" fill="white"/>
</svg>
