<svg width="88" height="23" viewBox="0 0 88 23" fill="none" xmlns="http://www.w3.org/2000/svg">
<mask id="path-1-inside-1_597_1412" fill="white">
<path d="M12.9541 10.937C12.9541 8.487 14.9661 7.35 15.0541 7.262C13.9161 5.6 12.1661 5.425 11.5541 5.337C10.0661 5.162 8.66611 6.212 7.87911 6.212C7.09111 6.212 5.95411 5.337 4.72911 5.337C3.15411 5.337 1.66611 6.3 0.791109 7.7C-0.871891 10.587 0.35311 14.962 2.01611 17.325C2.80311 18.462 3.76611 19.775 4.99111 19.775C6.21611 19.687 6.65311 18.987 8.14111 18.987C9.62911 18.987 9.97811 19.775 11.2911 19.775C12.6041 19.775 13.3911 18.637 14.1781 17.412C15.1411 16.1 15.4911 14.787 15.4911 14.7C15.4911 14.787 12.9541 13.825 12.9541 10.937ZM10.5031 3.85C11.1161 3.063 11.6411 1.925 11.4661 0.787003C10.5031 0.787003 9.36611 1.4 8.66611 2.275C8.05311 2.975 7.52811 4.113 7.70311 5.25C8.75311 5.25 9.89111 4.637 10.5031 3.85ZM28.2661 16.888H24.1541L23.1911 19.863H21.4411L25.3791 9.013H27.2161L31.1541 19.863H29.4041L28.2661 16.888ZM24.5911 15.575H27.9161L26.3411 10.85H26.2541L24.5911 15.575ZM39.5531 15.837C39.5531 18.287 38.2411 19.863 36.2281 19.863C35.0911 19.863 34.2161 19.337 33.7781 18.463V22.4H32.1161V11.9H33.6911V13.213C34.1281 12.337 35.0911 11.813 36.2281 11.813C38.2411 11.813 39.5531 13.388 39.5531 15.837ZM37.8911 15.837C37.8911 14.262 37.1031 13.212 35.7911 13.212C34.5661 13.212 33.6911 14.262 33.6911 15.837C33.6911 17.413 34.5661 18.462 35.7911 18.462C37.0161 18.55 37.8911 17.5 37.8911 15.837ZM48.2161 15.837C48.2161 18.287 46.9031 19.863 44.8911 19.863C43.7541 19.863 42.8791 19.337 42.4411 18.463V22.4H40.7781V11.9H42.3541V13.213C42.7911 12.337 43.7541 11.813 44.8911 11.813C46.9041 11.813 48.2161 13.388 48.2161 15.837ZM46.5531 15.837C46.5531 14.262 45.7661 13.212 44.4531 13.212C43.2291 13.212 42.3531 14.262 42.3531 15.837C42.3531 17.413 43.2291 18.462 44.4531 18.462C45.7661 18.55 46.5531 17.5 46.5531 15.837ZM53.9911 16.8C54.0791 17.85 55.1291 18.55 56.6161 18.55C58.0161 18.55 58.9791 17.85 58.9791 16.887C58.9791 16.012 58.3661 15.575 56.9661 15.225L55.5661 14.875C53.5541 14.35 52.6791 13.475 52.6791 11.988C52.6791 10.15 54.3411 8.838 56.6161 8.838C58.8911 8.838 60.4661 10.15 60.5541 11.988H58.8911C58.8041 10.938 57.9291 10.238 56.6161 10.238C55.3041 10.238 54.3411 10.85 54.3411 11.813C54.3411 12.6 54.9541 13.038 56.3541 13.388L57.5791 13.65C59.7661 14.175 60.7291 15.05 60.7291 16.625C60.7291 18.637 59.0661 19.95 56.5291 19.95C54.0791 19.95 52.5041 18.725 52.4161 16.712H53.9911V16.8ZM64.2291 10.063V11.9H65.7161V13.213H64.2291V17.587C64.2291 18.287 64.4911 18.55 65.1911 18.55H65.7161V19.863C65.5411 19.95 65.1911 19.95 64.8411 19.95C63.2661 19.95 62.6541 19.337 62.6541 17.85V13.3H61.5161V11.987H62.6541V10.15H64.2291V10.063ZM66.5911 15.837C66.5911 13.387 68.0781 11.813 70.3541 11.813C72.6281 11.813 74.1161 13.388 74.1161 15.837C74.1161 18.375 72.6281 19.863 70.3531 19.863C67.9911 19.95 66.5911 18.375 66.5911 15.837ZM72.4531 15.837C72.4531 14.087 71.6661 13.125 70.3531 13.125C69.0411 13.125 68.2531 14.175 68.2531 15.837C68.2531 17.587 69.0411 18.55 70.3531 18.55C71.6661 18.55 72.4531 17.587 72.4531 15.837ZM75.4281 11.9H77.0031V13.213C77.2661 12.337 77.9661 11.813 78.9281 11.813C79.1911 11.813 79.3661 11.813 79.4531 11.9V13.388C79.3661 13.3 79.0161 13.3 78.7531 13.3C77.7031 13.3 77.0911 14 77.0911 15.137V19.863H75.4281V11.9ZM86.9781 17.5C86.8031 18.9 85.3161 19.95 83.5661 19.95C81.2911 19.95 79.8031 18.375 79.8031 15.925C79.8031 13.475 81.2031 11.812 83.4781 11.812C85.6661 11.812 87.0661 13.3 87.0661 15.75V16.275H81.4661V16.363C81.4661 17.675 82.3411 18.637 83.5661 18.637C84.4411 18.637 85.1411 18.2 85.4031 17.5H86.9781ZM81.4661 15.137H85.4031C85.4031 13.913 84.6161 13.125 83.4781 13.125C82.3411 13.125 81.5531 13.913 81.4661 15.137ZM24.5041 0.437003C26.0791 0.437003 26.9541 1.4 26.9541 3.062C26.9541 4.725 26.0791 5.687 24.5041 5.687H22.5791V0.437003H24.5041ZM23.3661 4.9H24.3291C25.3791 4.9 26.0791 4.2 26.0791 3.062C26.0791 1.925 25.4661 1.225 24.3291 1.225H23.3661V4.9ZM27.8291 3.675C27.8291 2.362 28.5291 1.662 29.6661 1.662C30.8041 1.662 31.5041 2.45 31.5041 3.675C31.5041 4.988 30.8041 5.687 29.6661 5.687C28.5291 5.775 27.8291 4.987 27.8291 3.675ZM30.7161 3.675C30.7161 2.8 30.3661 2.362 29.6661 2.362C28.9661 2.362 28.6161 2.887 28.6161 3.675C28.6161 4.55 28.9661 5.075 29.6661 5.075C30.3661 5.075 30.7161 4.55 30.7161 3.675ZM36.4911 5.687H35.7041L34.9161 2.8H34.8291L34.0411 5.687H33.2541L32.1161 1.75H32.9041L33.6041 4.725H33.6911L34.4791 1.75H35.2661L36.0541 4.725H36.1411L36.8411 1.75H37.6291L36.4911 5.687ZM38.5041 1.75H39.2911V2.362H39.3791C39.5541 1.925 39.9911 1.662 40.5161 1.662C41.3911 1.662 41.9161 2.187 41.9161 3.15V5.687H41.1291V3.325C41.1291 2.712 40.8661 2.362 40.2541 2.362C39.6411 2.362 39.2911 2.712 39.2911 3.325V5.6H38.5041V1.75ZM43.0541 0.175003H43.8411V5.687H43.0541V0.175003ZM44.8911 3.675C44.8911 2.362 45.5911 1.662 46.7291 1.662C47.8661 1.662 48.5661 2.45 48.5661 3.675C48.5661 4.988 47.8661 5.687 46.7291 5.687C45.6791 5.775 44.8911 4.987 44.8911 3.675ZM47.8661 3.675C47.8661 2.8 47.5161 2.362 46.8161 2.362C46.1161 2.362 45.7661 2.887 45.7661 3.675C45.7661 4.55 46.1161 5.075 46.8161 5.075C47.4291 5.075 47.8661 4.55 47.8661 3.675ZM49.4411 4.55C49.4411 3.85 49.9661 3.412 50.9291 3.412L51.9791 3.325V2.975C51.9791 2.537 51.7161 2.362 51.1911 2.362C50.7541 2.362 50.4911 2.537 50.4041 2.8H49.6161C49.7041 2.1 50.3161 1.662 51.1911 1.662C52.1541 1.662 52.7661 2.187 52.7661 2.975V5.688H51.9791V5.162H51.8911C51.6291 5.6 51.1911 5.775 50.6661 5.775C50.0541 5.775 49.4411 5.25 49.4411 4.55ZM51.9791 4.2V3.85L51.0161 3.938C50.4911 3.938 50.2291 4.2 50.2291 4.462C50.2291 4.812 50.5791 4.988 50.9291 4.988C51.5411 5.075 51.9791 4.725 51.9791 4.2ZM53.8161 3.675C53.8161 2.45 54.4291 1.662 55.4791 1.662C56.0041 1.662 56.4411 1.925 56.7041 2.362H56.7911V0.175003H57.5791V5.687H56.7911V5.075H56.7041C56.4411 5.512 56.0041 5.775 55.4791 5.775C54.4291 5.775 53.8161 4.987 53.8161 3.675ZM54.6041 3.675C54.6041 4.55 55.0411 4.987 55.6541 4.987C56.2661 4.987 56.7041 4.462 56.7041 3.675C56.7041 2.887 56.2661 2.362 55.6541 2.362C55.0411 2.362 54.6041 2.887 54.6041 3.675ZM60.7291 3.675C60.7291 2.362 61.4291 1.662 62.5661 1.662C63.7041 1.662 64.4041 2.45 64.4041 3.675C64.4041 4.988 63.7041 5.687 62.5661 5.687C61.4291 5.775 60.7291 4.987 60.7291 3.675ZM63.6161 3.675C63.6161 2.8 63.2661 2.362 62.5661 2.362C61.8661 2.362 61.5161 2.887 61.5161 3.675C61.5161 4.55 61.8661 5.075 62.5661 5.075C63.2661 5.075 63.6161 4.55 63.6161 3.675ZM65.4541 1.75H66.2411V2.362H66.3291C66.5041 1.925 66.9411 1.662 67.4661 1.662C68.3411 1.662 68.8661 2.187 68.8661 3.15V5.687H68.0791V3.325C68.0791 2.712 67.8161 2.362 67.2041 2.362C66.5911 2.362 66.2411 2.712 66.2411 3.325V5.6H65.4541V1.75ZM73.1541 0.787003V1.75H74.0291V2.362H73.1541V4.375C73.1541 4.813 73.3291 4.988 73.6791 4.988H73.9411V5.6H73.5041C72.6291 5.6 72.2791 5.338 72.2791 4.55V2.362H71.6661V1.75H72.2791V0.787003H73.1541ZM75.0791 0.175003H75.8661V2.362H75.9541C76.1291 1.925 76.5661 1.662 77.1791 1.662C78.0541 1.662 78.5791 2.187 78.5791 3.15V5.687H77.7911V3.325C77.7911 2.712 77.5291 2.362 76.9161 2.362C76.3041 2.362 75.9541 2.8 75.9541 3.325V5.6H75.1661V0.175003H75.0791ZM83.0411 4.637C82.8661 5.337 82.2541 5.775 81.2911 5.775C80.1541 5.775 79.4541 4.988 79.4541 3.762C79.4541 2.537 80.1541 1.662 81.2911 1.662C82.4291 1.662 83.0411 2.45 83.0411 3.675V3.937H80.2411C80.2411 4.637 80.6791 5.075 81.2911 5.075C81.7291 5.075 82.0791 4.9 82.2541 4.637H83.0411ZM80.3291 3.325H82.3411C82.3411 2.712 81.9041 2.275 81.3791 2.275C80.7661 2.362 80.3291 2.712 80.3291 3.325Z"/>
</mask>
<path d="M12.9541 10.937C12.9541 8.487 14.9661 7.35 15.0541 7.262C13.9161 5.6 12.1661 5.425 11.5541 5.337C10.0661 5.162 8.66611 6.212 7.87911 6.212C7.09111 6.212 5.95411 5.337 4.72911 5.337C3.15411 5.337 1.66611 6.3 0.791109 7.7C-0.871891 10.587 0.35311 14.962 2.01611 17.325C2.80311 18.462 3.76611 19.775 4.99111 19.775C6.21611 19.687 6.65311 18.987 8.14111 18.987C9.62911 18.987 9.97811 19.775 11.2911 19.775C12.6041 19.775 13.3911 18.637 14.1781 17.412C15.1411 16.1 15.4911 14.787 15.4911 14.7C15.4911 14.787 12.9541 13.825 12.9541 10.937ZM10.5031 3.85C11.1161 3.063 11.6411 1.925 11.4661 0.787003C10.5031 0.787003 9.36611 1.4 8.66611 2.275C8.05311 2.975 7.52811 4.113 7.70311 5.25C8.75311 5.25 9.89111 4.637 10.5031 3.85ZM28.2661 16.888H24.1541L23.1911 19.863H21.4411L25.3791 9.013H27.2161L31.1541 19.863H29.4041L28.2661 16.888ZM24.5911 15.575H27.9161L26.3411 10.85H26.2541L24.5911 15.575ZM39.5531 15.837C39.5531 18.287 38.2411 19.863 36.2281 19.863C35.0911 19.863 34.2161 19.337 33.7781 18.463V22.4H32.1161V11.9H33.6911V13.213C34.1281 12.337 35.0911 11.813 36.2281 11.813C38.2411 11.813 39.5531 13.388 39.5531 15.837ZM37.8911 15.837C37.8911 14.262 37.1031 13.212 35.7911 13.212C34.5661 13.212 33.6911 14.262 33.6911 15.837C33.6911 17.413 34.5661 18.462 35.7911 18.462C37.0161 18.55 37.8911 17.5 37.8911 15.837ZM48.2161 15.837C48.2161 18.287 46.9031 19.863 44.8911 19.863C43.7541 19.863 42.8791 19.337 42.4411 18.463V22.4H40.7781V11.9H42.3541V13.213C42.7911 12.337 43.7541 11.813 44.8911 11.813C46.9041 11.813 48.2161 13.388 48.2161 15.837ZM46.5531 15.837C46.5531 14.262 45.7661 13.212 44.4531 13.212C43.2291 13.212 42.3531 14.262 42.3531 15.837C42.3531 17.413 43.2291 18.462 44.4531 18.462C45.7661 18.55 46.5531 17.5 46.5531 15.837ZM53.9911 16.8C54.0791 17.85 55.1291 18.55 56.6161 18.55C58.0161 18.55 58.9791 17.85 58.9791 16.887C58.9791 16.012 58.3661 15.575 56.9661 15.225L55.5661 14.875C53.5541 14.35 52.6791 13.475 52.6791 11.988C52.6791 10.15 54.3411 8.838 56.6161 8.838C58.8911 8.838 60.4661 10.15 60.5541 11.988H58.8911C58.8041 10.938 57.9291 10.238 56.6161 10.238C55.3041 10.238 54.3411 10.85 54.3411 11.813C54.3411 12.6 54.9541 13.038 56.3541 13.388L57.5791 13.65C59.7661 14.175 60.7291 15.05 60.7291 16.625C60.7291 18.637 59.0661 19.95 56.5291 19.95C54.0791 19.95 52.5041 18.725 52.4161 16.712H53.9911V16.8ZM64.2291 10.063V11.9H65.7161V13.213H64.2291V17.587C64.2291 18.287 64.4911 18.55 65.1911 18.55H65.7161V19.863C65.5411 19.95 65.1911 19.95 64.8411 19.95C63.2661 19.95 62.6541 19.337 62.6541 17.85V13.3H61.5161V11.987H62.6541V10.15H64.2291V10.063ZM66.5911 15.837C66.5911 13.387 68.0781 11.813 70.3541 11.813C72.6281 11.813 74.1161 13.388 74.1161 15.837C74.1161 18.375 72.6281 19.863 70.3531 19.863C67.9911 19.95 66.5911 18.375 66.5911 15.837ZM72.4531 15.837C72.4531 14.087 71.6661 13.125 70.3531 13.125C69.0411 13.125 68.2531 14.175 68.2531 15.837C68.2531 17.587 69.0411 18.55 70.3531 18.55C71.6661 18.55 72.4531 17.587 72.4531 15.837ZM75.4281 11.9H77.0031V13.213C77.2661 12.337 77.9661 11.813 78.9281 11.813C79.1911 11.813 79.3661 11.813 79.4531 11.9V13.388C79.3661 13.3 79.0161 13.3 78.7531 13.3C77.7031 13.3 77.0911 14 77.0911 15.137V19.863H75.4281V11.9ZM86.9781 17.5C86.8031 18.9 85.3161 19.95 83.5661 19.95C81.2911 19.95 79.8031 18.375 79.8031 15.925C79.8031 13.475 81.2031 11.812 83.4781 11.812C85.6661 11.812 87.0661 13.3 87.0661 15.75V16.275H81.4661V16.363C81.4661 17.675 82.3411 18.637 83.5661 18.637C84.4411 18.637 85.1411 18.2 85.4031 17.5H86.9781ZM81.4661 15.137H85.4031C85.4031 13.913 84.6161 13.125 83.4781 13.125C82.3411 13.125 81.5531 13.913 81.4661 15.137ZM24.5041 0.437003C26.0791 0.437003 26.9541 1.4 26.9541 3.062C26.9541 4.725 26.0791 5.687 24.5041 5.687H22.5791V0.437003H24.5041ZM23.3661 4.9H24.3291C25.3791 4.9 26.0791 4.2 26.0791 3.062C26.0791 1.925 25.4661 1.225 24.3291 1.225H23.3661V4.9ZM27.8291 3.675C27.8291 2.362 28.5291 1.662 29.6661 1.662C30.8041 1.662 31.5041 2.45 31.5041 3.675C31.5041 4.988 30.8041 5.687 29.6661 5.687C28.5291 5.775 27.8291 4.987 27.8291 3.675ZM30.7161 3.675C30.7161 2.8 30.3661 2.362 29.6661 2.362C28.9661 2.362 28.6161 2.887 28.6161 3.675C28.6161 4.55 28.9661 5.075 29.6661 5.075C30.3661 5.075 30.7161 4.55 30.7161 3.675ZM36.4911 5.687H35.7041L34.9161 2.8H34.8291L34.0411 5.687H33.2541L32.1161 1.75H32.9041L33.6041 4.725H33.6911L34.4791 1.75H35.2661L36.0541 4.725H36.1411L36.8411 1.75H37.6291L36.4911 5.687ZM38.5041 1.75H39.2911V2.362H39.3791C39.5541 1.925 39.9911 1.662 40.5161 1.662C41.3911 1.662 41.9161 2.187 41.9161 3.15V5.687H41.1291V3.325C41.1291 2.712 40.8661 2.362 40.2541 2.362C39.6411 2.362 39.2911 2.712 39.2911 3.325V5.6H38.5041V1.75ZM43.0541 0.175003H43.8411V5.687H43.0541V0.175003ZM44.8911 3.675C44.8911 2.362 45.5911 1.662 46.7291 1.662C47.8661 1.662 48.5661 2.45 48.5661 3.675C48.5661 4.988 47.8661 5.687 46.7291 5.687C45.6791 5.775 44.8911 4.987 44.8911 3.675ZM47.8661 3.675C47.8661 2.8 47.5161 2.362 46.8161 2.362C46.1161 2.362 45.7661 2.887 45.7661 3.675C45.7661 4.55 46.1161 5.075 46.8161 5.075C47.4291 5.075 47.8661 4.55 47.8661 3.675ZM49.4411 4.55C49.4411 3.85 49.9661 3.412 50.9291 3.412L51.9791 3.325V2.975C51.9791 2.537 51.7161 2.362 51.1911 2.362C50.7541 2.362 50.4911 2.537 50.4041 2.8H49.6161C49.7041 2.1 50.3161 1.662 51.1911 1.662C52.1541 1.662 52.7661 2.187 52.7661 2.975V5.688H51.9791V5.162H51.8911C51.6291 5.6 51.1911 5.775 50.6661 5.775C50.0541 5.775 49.4411 5.25 49.4411 4.55ZM51.9791 4.2V3.85L51.0161 3.938C50.4911 3.938 50.2291 4.2 50.2291 4.462C50.2291 4.812 50.5791 4.988 50.9291 4.988C51.5411 5.075 51.9791 4.725 51.9791 4.2ZM53.8161 3.675C53.8161 2.45 54.4291 1.662 55.4791 1.662C56.0041 1.662 56.4411 1.925 56.7041 2.362H56.7911V0.175003H57.5791V5.687H56.7911V5.075H56.7041C56.4411 5.512 56.0041 5.775 55.4791 5.775C54.4291 5.775 53.8161 4.987 53.8161 3.675ZM54.6041 3.675C54.6041 4.55 55.0411 4.987 55.6541 4.987C56.2661 4.987 56.7041 4.462 56.7041 3.675C56.7041 2.887 56.2661 2.362 55.6541 2.362C55.0411 2.362 54.6041 2.887 54.6041 3.675ZM60.7291 3.675C60.7291 2.362 61.4291 1.662 62.5661 1.662C63.7041 1.662 64.4041 2.45 64.4041 3.675C64.4041 4.988 63.7041 5.687 62.5661 5.687C61.4291 5.775 60.7291 4.987 60.7291 3.675ZM63.6161 3.675C63.6161 2.8 63.2661 2.362 62.5661 2.362C61.8661 2.362 61.5161 2.887 61.5161 3.675C61.5161 4.55 61.8661 5.075 62.5661 5.075C63.2661 5.075 63.6161 4.55 63.6161 3.675ZM65.4541 1.75H66.2411V2.362H66.3291C66.5041 1.925 66.9411 1.662 67.4661 1.662C68.3411 1.662 68.8661 2.187 68.8661 3.15V5.687H68.0791V3.325C68.0791 2.712 67.8161 2.362 67.2041 2.362C66.5911 2.362 66.2411 2.712 66.2411 3.325V5.6H65.4541V1.75ZM73.1541 0.787003V1.75H74.0291V2.362H73.1541V4.375C73.1541 4.813 73.3291 4.988 73.6791 4.988H73.9411V5.6H73.5041C72.6291 5.6 72.2791 5.338 72.2791 4.55V2.362H71.6661V1.75H72.2791V0.787003H73.1541ZM75.0791 0.175003H75.8661V2.362H75.9541C76.1291 1.925 76.5661 1.662 77.1791 1.662C78.0541 1.662 78.5791 2.187 78.5791 3.15V5.687H77.7911V3.325C77.7911 2.712 77.5291 2.362 76.9161 2.362C76.3041 2.362 75.9541 2.8 75.9541 3.325V5.6H75.1661V0.175003H75.0791ZM83.0411 4.637C82.8661 5.337 82.2541 5.775 81.2911 5.775C80.1541 5.775 79.4541 4.988 79.4541 3.762C79.4541 2.537 80.1541 1.662 81.2911 1.662C82.4291 1.662 83.0411 2.45 83.0411 3.675V3.937H80.2411C80.2411 4.637 80.6791 5.075 81.2911 5.075C81.7291 5.075 82.0791 4.9 82.2541 4.637H83.0411ZM80.3291 3.325H82.3411C82.3411 2.712 81.9041 2.275 81.3791 2.275C80.7661 2.362 80.3291 2.712 80.3291 3.325Z" fill="white" stroke="white" stroke-width="2" mask="url(#path-1-inside-1_597_1412)"/>
</svg>
