<svg width="246" height="172" viewBox="0 0 246 172" fill="none" xmlns="http://www.w3.org/2000/svg">
<circle cx="119" cy="88" r="44" fill="url(#paint0_radial_89_426)" fill-opacity="0.3"/>
<circle cx="119" cy="88" r="34" fill="url(#paint1_radial_89_426)" fill-opacity="0.5"/>
<path d="M118.994 54C100.262 54 85 69.2625 85 87.9937C85 106.725 100.262 121.987 118.994 121.987C137.725 121.987 152.987 106.725 152.987 87.9937C152.987 69.2625 137.725 54 118.994 54ZM118.994 117.594C102.575 117.594 89.3937 104.412 89.3937 87.9937C89.3937 71.575 102.806 58.3937 118.994 58.3937C135.412 58.3937 148.594 71.575 148.594 87.9937C148.594 104.412 135.412 117.594 118.994 117.594Z" fill="#EDEDED"/>
<path d="M118.585 43.6429C94.2253 43.6429 74.3924 63.3571 74.3924 87.5714C74.3924 111.786 94.2253 131.5 118.585 131.5C142.945 131.5 162.778 111.786 162.778 87.5714C162.993 63.3571 142.945 43.6429 118.585 43.6429ZM118.585 127.429C96.381 127.429 78.4883 109.643 78.4883 87.5714C78.4883 65.5 96.381 47.7143 118.585 47.7143C140.789 47.7143 158.682 65.5 158.682 87.5714C158.682 109.643 140.789 127.429 118.585 127.429ZM188 60.1429L187.569 36.1429C187.569 35.0714 186.707 34 185.413 34C184.335 34 183.257 35.0714 183.257 36.1429L183.689 58.2143H181.102V36.1429C181.102 35.0714 180.239 34 178.946 34C177.868 34 176.79 34.8571 176.79 36.1429L177.006 58.2143H173.988L174.203 36.1429C174.203 35.0714 173.341 34 172.048 34C170.97 34 169.892 34.8571 169.892 36.1429L169.676 58.2143H167.089L167.52 36.3571C167.52 35.2857 166.658 34.2143 165.365 34.2143C164.287 34.2143 163.209 35.0714 163.209 36.3571L162.993 60.1429V66.5714C162.993 68.0714 163.425 69.3571 164.502 70.4286L168.383 74.9286C168.598 75.3571 168.814 75.7857 168.814 76.2143L166.874 132.571C166.874 134.929 167.736 137.5 169.461 139.214C170.97 140.929 173.125 141.786 175.497 141.786C177.868 141.786 180.024 140.929 181.533 139.214C183.257 137.5 184.12 135.143 184.12 132.571L182.18 76.2143C182.18 75.7857 182.395 75.3571 182.611 74.9286L186.491 70.4286C187.353 69.3571 188 68.0714 188 66.5714V60.1429ZM183.904 66.7857C183.904 67.2143 183.689 67.6429 183.473 67.8571L179.377 72.3571C178.299 73.4286 177.868 74.9286 177.868 76.4286L179.808 132.786C179.808 134.071 179.377 135.357 178.515 136.429C176.79 138.143 173.988 138.143 172.479 136.429C171.616 135.571 171.185 134.286 171.185 132.786L173.125 76.4286C173.125 74.9286 172.694 73.4286 171.616 72.3571L167.736 67.8571C167.52 67.4286 167.305 67.2143 167.305 66.7857V62.5H172.048H179.161H183.904V66.7857ZM54.9908 34.4286C54.344 34 53.6973 34 53.0506 34.4286C52.4039 34.8571 51.9727 35.5 51.9727 36.1429V97.8571L50.0326 133.214C49.817 135.571 50.6793 137.714 52.4039 139.429C53.9129 141.143 56.0686 142 58.4399 142C60.8113 142 62.967 141.143 64.476 139.429C65.985 137.714 66.8473 135.571 66.8473 133.214L64.9072 100H66.2006C67.2785 100 68.1408 99.1429 68.3564 98.0714C74.608 45.1429 55.8531 34.6429 54.9908 34.4286ZM61.458 136.429C59.949 138.143 56.9309 138.143 55.4219 136.429C54.5596 135.571 54.1285 134.5 54.344 133.429L56.2842 100H60.8113L62.7514 133.429C62.5359 134.5 62.1047 135.571 61.458 136.429ZM64.2604 95.7143H62.7514H56.2842V40.8571C60.5957 46.2143 68.1408 60.5714 64.2604 95.7143Z" fill="#EDEDED"/>
<circle cx="109" cy="78" r="3" fill="#EDEDED"/>
<circle cx="129" cy="78" r="3" fill="#EDEDED"/>
<path d="M109 100.5C112 96.8333 120.2 91.7 129 100.5" stroke="#EDEDED" stroke-width="4" stroke-linecap="round"/>
<path d="M89 19L100 30M100 19L89 30" stroke="#EDEDED" stroke-width="4" stroke-linecap="round"/>
<path d="M217 128L228 139M228 128L217 139" stroke="#EDEDED" stroke-width="4" stroke-linecap="round"/>
<path d="M15 118L26 129M26 118L15 129" stroke="#EDEDED" stroke-width="4" stroke-linecap="round"/>
<path d="M119.201 29.6959C127.156 32.7187 145.46 33.5378 160.725 17.7639C189.362 -11.8275 218.292 5.74941 227.544 14.4229C250.454 35.9006 249.499 93.1743 232.317 111.311" stroke="#EDEDED" stroke-opacity="0.5" stroke-width="2" stroke-linecap="round" stroke-dasharray="4 4"/>
<path d="M9.42652 96.9926C4.17643 86.9697 -3.75582 53.5245 7.99467 36.8552C28.5178 7.74101 63.8366 17.2866 68.1321 18.2412" stroke="#EDEDED" stroke-opacity="0.5" stroke-width="2" stroke-linecap="round" stroke-dasharray="4 4"/>
<path d="M46.6547 150.626C79.1099 171.926 148.793 180.994 195.566 145.675" stroke="#EDEDED" stroke-opacity="0.5" stroke-width="2" stroke-linecap="round" stroke-dasharray="4 4"/>
<defs>
<radialGradient id="paint0_radial_89_426" cx="0" cy="0" r="1" gradientUnits="userSpaceOnUse" gradientTransform="translate(119 88) rotate(90) scale(44)">
<stop offset="0.760417" stop-color="#D9D9D9" stop-opacity="0"/>
<stop offset="1" stop-color="#D9D9D9"/>
</radialGradient>
<radialGradient id="paint1_radial_89_426" cx="0" cy="0" r="1" gradientUnits="userSpaceOnUse" gradientTransform="translate(119 88) rotate(90) scale(34)">
<stop offset="0.760417" stop-color="#D9D9D9" stop-opacity="0"/>
<stop offset="1" stop-color="#D9D9D9"/>
</radialGradient>
</defs>
</svg>
