<svg width="246" height="172" viewBox="0 0 246 172" fill="none" xmlns="http://www.w3.org/2000/svg">
<defs>
    <radialGradient id="paint0_radial_0_1" cx="0" cy="0" r="1" gradientUnits="userSpaceOnUse" gradientTransform="translate(119 88) rotate(90) scale(44)">
        <stop offset="0.760417" stop-color="#D9D9D9" stop-opacity="0" />
        <stop offset="1" stop-color="#D9D9D9" />
    </radialGradient>
    <radialGradient id="paint1_radial_0_1" cx="0" cy="0" r="1" gradientUnits="userSpaceOnUse" gradientTransform="translate(119 88) rotate(90) scale(34)">
        <stop offset="0.760417" stop-color="#D9D9D9" stop-opacity="0" />
        <stop offset="1" stop-color="#D9D9D9" />
    </radialGradient>
</defs>
    <circle cx="119" cy="88" r="44" fill="url(#paint0_radial_0_1)" fill-opacity="0.3" />
    <circle cx="119" cy="88" r="34" fill="url(#paint1_radial_0_1)" fill-opacity="0.5" />
    <path d="M118.994 54C100.262 54 85 69.2625 85 87.9937C85 106.725 100.262 121.987 118.994 121.987C137.725 121.987 152.987 106.725 152.987 87.9937C152.987 69.2625 137.725 54 118.994 54ZM118.994 117.594C102.575 117.594 89.3937 104.412 89.3937 87.9937C89.3937 71.575 102.806 58.3937 118.994 58.3937C135.412 58.3937 148.594 71.575 148.594 87.9937C148.594 104.412 135.412 117.594 118.994 117.594Z" fill="#EDEDED" />
    <circle cx="109" cy="78" r="3" fill="#EDEDED" />
    <circle cx="129" cy="78" r="3" fill="#EDEDED" />
    <path d="M109 100.5C112 96.8333 120.2 91.7 129 100.5" stroke="#EDEDED" stroke-width="4" stroke-linecap="round" />
    <path d="M89 19L100 30M100 19L89 30" stroke="#EDEDED" stroke-width="4" stroke-linecap="round" />
    <path d="M217 128L228 139M228 128L217 139" stroke="#EDEDED" stroke-width="4" stroke-linecap="round" />
    <path d="M15 118L26 129M26 118L15 129" stroke="#EDEDED" stroke-width="4" stroke-linecap="round" />
    <path d="M119.201 29.6959C127.156 32.7187 145.46 33.5378 160.725 17.7639C189.362 -11.8275 218.292 5.74941 227.544 14.4229C250.454 35.9006 249.499 93.1743 232.317 111.311" stroke="#EDEDED" stroke-opacity="0.5" stroke-width="2" stroke-linecap="round" stroke-dasharray="4 4" />
    <path d="M9.42652 96.9926C4.17643 86.9697 -3.75582 53.5245 7.99467 36.8552C28.5178 7.74101 63.8366 17.2866 68.1321 18.2412" stroke="#EDEDED" stroke-opacity="0.5" stroke-width="2" stroke-linecap="round" stroke-dasharray="4 4" />
    <path d="M46.6547 150.626C79.1099 171.926 148.793 180.994 195.566 145.675" stroke="#EDEDED" stroke-opacity="0.5" stroke-width="2" stroke-linecap="round" stroke-dasharray="4 4" />
    <path d="M183.638 34.3214C184.285 33.8929 184.932 33.8929 185.578 34.3214C186.225 34.75 186.656 35.3929 186.656 36.0357V97.75L188.596 133.107C188.812 135.464 187.95 137.607 186.225 139.321C184.716 141.036 182.56 141.893 180.189 141.893C177.818 141.893 175.662 141.036 174.153 139.321C172.644 137.607 171.782 135.464 171.782 133.107L173.722 99.8929H172.428C171.35 99.8929 170.488 99.0357 170.273 97.9643C164.021 45.0357 182.776 34.5357 183.638 34.3214ZM177.171 136.321C178.68 138.036 181.698 138.036 183.207 136.321C184.069 135.464 184.5 134.393 184.285 133.321L182.345 99.8929H177.818L175.877 133.321C176.093 134.393 176.524 135.464 177.171 136.321ZM174.368 95.6071H175.877H182.345V40.75C178.033 46.1071 170.488 60.4643 174.368 95.6071Z" fill="#EDEDED" />
    <path d="M72.0066 60.1429L71.5754 36.1429C71.5754 35.0714 70.7131 34 69.4197 34C68.3418 34 67.264 35.0714 67.264 36.1429L67.6951 58.2143H65.1082V36.1429C65.1082 35.0714 64.2459 34 62.9525 34C61.8746 34 60.7967 34.8571 60.7967 36.1429L61.0123 58.2143H57.9943L58.2098 36.1429C58.2098 35.0714 57.3476 34 56.0541 34C54.9762 34 53.8984 34.8571 53.8984 36.1429L53.6828 58.2143H51.0959L51.5271 36.3571C51.5271 35.2857 50.6648 34.2143 49.3713 34.2143C48.2934 34.2143 47.2156 35.0714 47.2156 36.3571L47 60.1429V66.5714C47 68.0714 47.4311 69.3571 48.509 70.4286L52.3894 74.9286C52.6049 75.3571 52.8205 75.7857 52.8205 76.2143L50.8803 132.571C50.8803 134.929 51.7426 137.5 53.4672 139.214C54.9762 140.929 57.132 141.786 59.5033 141.786C61.8746 141.786 64.0304 140.929 65.5394 139.214C67.264 137.5 68.1263 135.143 68.1263 132.571L66.1861 76.2143C66.1861 75.7857 66.4017 75.3571 66.6172 74.9286L70.4976 70.4286C71.3599 69.3571 72.0066 68.0714 72.0066 66.5714V60.1429ZM67.9107 66.7857C67.9107 67.2143 67.6951 67.6429 67.4795 67.8571L63.3836 72.3571C62.3058 73.4286 61.8746 74.9286 61.8746 76.4286L63.8148 132.786C63.8148 134.071 63.3836 135.357 62.5213 136.429C60.7967 138.143 57.9943 138.143 56.4853 136.429C55.623 135.571 55.1918 134.286 55.1918 132.786L57.132 76.4286C57.132 74.9286 56.7008 73.4286 55.623 72.3571L51.7426 67.8571C51.527 67.4286 51.3115 67.2143 51.3115 66.7857V62.5H56.0541H63.1681H67.9107V66.7857Z" fill="#EDEDED" />
<path d="M119.193 43.6429C94.8328 43.6429 75 63.3572 75 87.5715C75 111.786 94.8328 131.5 119.193 131.5C143.553 131.5 163.385 111.786 163.385 87.5715C163.601 63.3572 143.553 43.6429 119.193 43.6429ZM119.193 127.429C96.9886 127.429 79.0959 109.643 79.0959 87.5715C79.0959 65.5001 96.9886 47.7144 119.193 47.7144C141.397 47.7144 159.289 65.5001 159.289 87.5715C159.289 109.643 141.397 127.429 119.193 127.429Z" fill="#EDEDED" />

</svg>
