<svg width="689" height="440" viewBox="0 0 689 440" fill="none" xmlns="http://www.w3.org/2000/svg">
    <path fill-rule="evenodd" clip-rule="evenodd" d="M508.033 29.988C508.04 28.6573 509.125 27.5848 510.456 27.5923C513.94 27.6121 517.361 27.8125 520.71 28.1692C522.033 28.3102 522.991 29.4971 522.85 30.8203C522.709 32.1435 521.522 33.1019 520.199 32.9609C517.005 32.6207 513.746 32.4299 510.429 32.411C509.098 32.4035 508.025 31.3186 508.033 29.988ZM502.817 30.2262C502.947 31.5505 501.978 32.7291 500.654 32.8586C497.468 33.17 494.238 33.6493 490.97 34.3151C489.666 34.5807 488.394 33.739 488.128 32.4351C487.862 31.1312 488.704 29.8588 490.008 29.5933C493.442 28.8938 496.837 28.39 500.185 28.0626C501.509 27.9332 502.688 28.9018 502.817 30.2262ZM528.002 31.6251C528.269 30.3215 529.543 29.4813 530.846 29.7485C534.255 30.447 537.57 31.2955 540.784 32.2644C542.058 32.6486 542.779 33.9928 542.395 35.2669C542.011 36.5409 540.666 37.2622 539.392 36.8781C536.312 35.9491 533.137 35.1371 529.879 34.4692C528.575 34.202 527.735 32.9286 528.002 31.6251ZM483.092 33.7315C483.487 35.002 482.778 36.3526 481.507 36.7482C478.459 37.6971 475.383 38.8169 472.282 40.1218C471.056 40.6381 469.643 40.0624 469.127 38.8359C468.611 37.6095 469.186 36.1968 470.413 35.6805C473.656 34.3155 476.878 33.1425 480.075 32.1472C481.346 31.7516 482.696 32.461 483.092 33.7315ZM547.323 36.99C547.815 35.7534 549.215 35.1491 550.452 35.6405C553.703 36.9321 556.822 38.3307 559.794 39.7988C560.987 40.388 561.477 41.8329 560.888 43.026C560.298 44.2191 558.853 44.7086 557.66 44.1194C554.798 42.7056 551.798 41.3602 548.673 40.1188C547.436 39.6275 546.832 38.2267 547.323 36.99ZM464.442 41.0667C465.066 42.242 464.62 43.7006 463.444 44.3248C460.628 45.8206 457.795 47.4771 454.949 49.3047C453.83 50.0238 452.339 49.6992 451.62 48.5795C450.901 47.4599 451.225 45.9693 452.345 45.2502C455.3 43.352 458.248 41.6282 461.184 40.0688C462.36 39.4447 463.818 39.8915 464.442 41.0667ZM565.485 45.5248C566.165 44.381 567.643 44.0051 568.787 44.6851C571.87 46.5178 574.738 48.3923 577.373 50.2506C578.46 51.0176 578.72 52.5209 577.953 53.6082C577.186 54.6956 575.682 54.9553 574.595 54.1883C572.059 52.3996 569.296 50.5936 566.325 48.8271C565.181 48.147 564.805 46.6685 565.485 45.5248ZM447.335 51.5722C448.136 52.6348 447.924 54.1456 446.861 54.9466C444.316 56.8652 441.764 58.9269 439.207 61.1395C438.2 62.0101 436.679 61.9002 435.808 60.8939C434.938 59.8876 435.048 58.366 436.054 57.4953C438.691 55.2139 441.327 53.084 443.961 51.0987C445.023 50.2976 446.534 50.5097 447.335 51.5722ZM582.097 56.791C582.955 55.7736 584.475 55.644 585.492 56.5016C586.884 57.6741 588.161 58.8114 589.318 59.8961C590.513 61.0162 591.68 62.1748 592.821 63.3698C593.74 64.3323 593.705 65.8575 592.742 66.7763C591.779 67.6951 590.254 67.6597 589.336 66.6971C588.255 65.5649 587.15 64.4692 586.022 63.4116C584.93 62.3873 583.716 61.3063 582.387 60.1861C581.369 59.3285 581.24 57.8085 582.097 56.791ZM431.979 64.4225C432.909 65.3744 432.891 66.8999 431.939 67.8297C430.762 68.9793 429.584 70.1622 428.407 71.3791C427.311 72.5111 426.209 73.6088 425.101 74.6728C424.141 75.5944 422.616 75.5634 421.694 74.6035C420.772 73.6437 420.804 72.1184 421.763 71.1968C422.829 70.1738 423.889 69.1179 424.944 68.028C426.153 66.7791 427.362 65.5642 428.572 64.3826C429.523 63.4528 431.049 63.4706 431.979 64.4225ZM595.882 70.4352C596.933 69.6185 598.447 69.808 599.263 70.8586C601.25 73.4137 603.14 76.0901 604.934 78.875C605.655 79.9935 605.332 81.4846 604.214 82.2054C603.095 82.9262 601.604 82.6037 600.883 81.4851C599.162 78.8131 597.354 76.2532 595.459 73.8162C594.642 72.7657 594.832 71.252 595.882 70.4352ZM418.457 77.485C419.302 78.5131 419.153 80.0314 418.125 80.8762C415.659 82.9034 413.172 84.7782 410.674 86.5096C409.581 87.2677 408.08 86.9957 407.321 85.902C406.563 84.8084 406.835 83.3073 407.929 82.5492C410.319 80.8928 412.7 79.0972 415.066 77.1533C416.094 76.3084 417.612 76.4569 418.457 77.485ZM606.651 86.3458C607.822 85.7137 609.283 86.1507 609.915 87.3217C611.449 90.1624 612.898 93.0911 614.264 96.0971C614.815 97.3085 614.28 98.7369 613.068 99.2876C611.857 99.8383 610.428 99.3028 609.878 98.0914C608.554 95.1802 607.154 92.35 605.675 89.6104C605.043 88.4394 605.48 86.9778 606.651 86.3458ZM403.661 88.2169C404.323 89.3714 403.923 90.8437 402.769 91.5054C399.992 93.0968 397.213 94.5239 394.444 95.7989C393.236 96.3555 391.805 95.8269 391.248 94.6182C390.691 93.4095 391.22 91.9785 392.429 91.4219C395.069 90.206 397.721 88.8442 400.372 87.3246C401.527 86.6629 402.999 87.0624 403.661 88.2169ZM387.236 96.2501C387.681 97.5044 387.024 98.8814 385.77 99.3259C382.75 100.396 379.757 101.297 376.807 102.044C375.517 102.371 374.207 101.59 373.88 100.3C373.553 99.01 374.334 97.6994 375.624 97.3726C378.432 96.6611 381.283 95.8035 384.161 94.7838C385.415 94.3394 386.792 94.9959 387.236 96.2501ZM324.377 97.5967C324.849 96.3528 326.241 95.7276 327.485 96.2003C328.744 96.6787 330.126 97.1366 331.622 97.5613C332.902 97.9248 333.645 99.2572 333.281 100.537C332.918 101.817 331.585 102.56 330.305 102.197C328.686 101.737 327.171 101.236 325.773 100.705C324.529 100.232 323.904 98.8406 324.377 97.5967ZM369.636 101.167C369.841 102.482 368.941 103.714 367.626 103.919C364.436 104.416 361.32 104.742 358.302 104.922C356.973 105.001 355.832 103.988 355.753 102.659C355.674 101.331 356.687 100.19 358.016 100.111C360.885 99.9408 363.848 99.6304 366.884 99.1573C368.199 98.9524 369.431 99.8522 369.636 101.167ZM337.532 101.422C337.726 100.106 338.951 99.196 340.267 99.3903C343.024 99.7972 345.983 100.081 349.108 100.204C350.438 100.257 351.473 101.377 351.421 102.707C351.368 104.036 350.248 105.072 348.919 105.02C345.622 104.89 342.491 104.59 339.564 104.157C338.247 103.963 337.338 102.739 337.532 101.422ZM614.924 103.735C616.166 103.259 617.56 103.88 618.036 105.122C619.188 108.128 620.267 111.195 621.273 114.316C621.681 115.582 620.985 116.94 619.719 117.348C618.453 117.757 617.095 117.061 616.686 115.794C615.706 112.754 614.656 109.768 613.536 106.847C613.06 105.605 613.681 104.211 614.924 103.735ZM621.076 121.955C622.361 121.61 623.683 122.371 624.029 123.657C624.865 126.769 625.635 129.924 626.339 133.111C626.626 134.411 625.806 135.697 624.506 135.984C623.207 136.271 621.921 135.45 621.634 134.151C620.945 131.032 620.192 127.948 619.375 124.908C619.03 123.623 619.791 122.301 621.076 121.955ZM625.442 140.7C626.752 140.468 628.003 141.342 628.235 142.653C628.798 145.832 629.298 149.037 629.738 152.258C629.917 153.577 628.994 154.791 627.676 154.971C626.357 155.151 625.143 154.228 624.963 152.91C624.532 149.75 624.041 146.608 623.49 143.493C623.258 142.182 624.132 140.932 625.442 140.7ZM628.234 159.748C629.558 159.618 630.737 160.586 630.867 161.911C631.182 165.131 631.438 168.362 631.635 171.594C631.716 172.923 630.705 174.065 629.377 174.146C628.049 174.227 626.906 173.216 626.825 171.888C626.632 168.713 626.38 165.542 626.071 162.38C625.941 161.056 626.91 159.877 628.234 159.748ZM629.583 178.947C630.913 178.914 632.018 179.966 632.051 181.296C632.132 184.541 632.154 187.781 632.119 191.009C632.105 192.339 631.014 193.406 629.684 193.392C628.353 193.377 627.286 192.287 627.301 190.956C627.335 187.786 627.313 184.603 627.234 181.416C627.201 180.086 628.252 178.98 629.583 178.947ZM629.544 198.2C630.874 198.263 631.9 199.391 631.837 200.72C631.684 203.976 631.471 207.211 631.2 210.418C631.088 211.744 629.922 212.728 628.596 212.616C627.27 212.504 626.286 211.338 626.398 210.012C626.664 206.865 626.873 203.689 627.024 200.493C627.087 199.164 628.215 198.137 629.544 198.2ZM628.1 217.4C629.421 217.563 630.359 218.766 630.195 220.087C629.793 223.336 629.33 226.547 628.805 229.711C628.588 231.024 627.347 231.911 626.034 231.694C624.722 231.476 623.834 230.236 624.051 228.923C624.565 225.826 625.019 222.681 625.413 219.495C625.576 218.175 626.779 217.237 628.1 217.4ZM625.147 236.41C626.449 236.686 627.281 237.965 627.005 239.267C626.321 242.491 625.571 245.653 624.755 248.743C624.415 250.03 623.097 250.797 621.81 250.458C620.524 250.118 619.756 248.799 620.096 247.513C620.891 244.502 621.623 241.417 622.291 238.268C622.567 236.966 623.846 236.134 625.147 236.41ZM620.453 255.088C621.719 255.5 622.411 256.859 622 258.125C620.97 261.291 619.863 264.362 618.681 267.324C618.188 268.56 616.786 269.162 615.55 268.669C614.314 268.175 613.712 266.773 614.206 265.538C615.347 262.679 616.418 259.707 617.417 256.634C617.828 255.369 619.188 254.677 620.453 255.088ZM613.612 273.051C614.805 273.64 615.295 275.085 614.707 276.278C613.208 279.317 611.613 282.205 609.924 284.922C609.222 286.053 607.736 286.399 606.606 285.697C605.476 284.994 605.129 283.509 605.832 282.378C607.431 279.806 608.949 277.057 610.385 274.146C610.974 272.953 612.418 272.463 613.612 273.051ZM603.846 289.618C604.879 290.456 605.037 291.973 604.199 293.007C603.136 294.316 602.043 295.567 600.919 296.753C600.004 297.719 598.479 297.76 597.513 296.845C596.547 295.93 596.505 294.405 597.42 293.439C598.455 292.347 599.468 291.19 600.457 289.97C601.295 288.937 602.813 288.779 603.846 289.618Z" fill="#EDEDED" fill-opacity="0.5" />
    <path fill-rule="evenodd" clip-rule="evenodd" d="M168.52 68.0461C165.332 67.8867 161.999 67.8113 158.551 67.8505C157.22 67.8656 156.129 66.7992 156.114 65.4686C156.099 64.138 157.166 63.0471 158.496 63.032C162.049 62.9916 165.481 63.0694 168.761 63.2334C170.09 63.2998 171.113 64.431 171.047 65.7601C170.98 67.0891 169.849 68.1126 168.52 68.0461ZM150.818 65.6985C150.921 67.0253 149.928 68.1837 148.601 68.2859C145.367 68.5351 142.064 68.8975 138.715 69.3945C137.399 69.5898 136.174 68.6811 135.978 67.3649C135.783 66.0486 136.692 64.8232 138.008 64.6279C141.475 64.1134 144.89 63.7387 148.231 63.4813C149.558 63.3791 150.716 64.3718 150.818 65.6985ZM176.322 66.1795C176.466 64.8566 177.654 63.9002 178.977 64.0434C182.688 64.4452 186.1 64.9307 189.149 65.4343C190.462 65.6511 191.35 66.8912 191.133 68.2041C190.917 69.517 189.676 70.4055 188.364 70.1887C185.393 69.6981 182.071 69.2254 178.458 68.8343C177.135 68.691 176.179 67.5025 176.322 66.1795ZM130.762 68.3372C131.057 69.635 130.243 70.9255 128.945 71.2198C125.77 71.9398 122.571 72.7934 119.367 73.7977C118.097 74.1956 116.745 73.4888 116.347 72.2191C115.949 70.9493 116.656 69.5973 117.926 69.1994C121.26 68.1546 124.584 67.2676 127.88 66.5202C129.177 66.226 130.468 67.0395 130.762 68.3372ZM196.308 69.2058C196.595 67.9064 197.881 67.0856 199.18 67.3724C200.323 67.6247 201.315 67.8539 202.144 68.0469C202.341 68.0929 202.527 68.1364 202.703 68.1775C203.275 68.3112 203.737 68.4192 204.103 68.5006C205.402 68.7892 206.221 70.0763 205.933 71.3753C205.644 72.6742 204.357 73.4933 203.058 73.2046C202.664 73.1171 202.165 73.0005 201.586 72.8651C201.414 72.8249 201.235 72.7831 201.05 72.74C200.23 72.5489 199.257 72.3244 198.141 72.0779C196.842 71.7911 196.021 70.5052 196.308 69.2058ZM111.369 74.012C111.874 75.2433 111.285 76.6505 110.053 77.1552C107.044 78.3889 104.042 79.7705 101.063 81.3141C99.8819 81.9263 98.4278 81.4649 97.8156 80.2834C97.2034 79.1019 97.6649 77.6478 98.8464 77.0356C101.957 75.424 105.088 73.9827 108.226 72.6965C109.457 72.1918 110.864 72.7808 111.369 74.012ZM93.2325 82.9282C93.9495 84.0492 93.6222 85.5392 92.5012 86.2563C89.7735 88.0012 87.0759 89.8998 84.4194 91.9637C83.3686 92.7801 81.8549 92.59 81.0385 91.5392C80.2221 90.4884 80.4121 88.9747 81.4629 88.1584C84.2371 86.003 87.0549 84.0199 89.9044 82.197C91.0254 81.4799 92.5154 81.8073 93.2325 82.9282ZM77.0117 94.9706C77.9189 95.9441 77.8652 97.4687 76.8917 98.3759C74.5256 100.581 72.2029 102.936 69.9322 105.452C69.0407 106.44 67.5171 106.518 66.5293 105.627C65.5414 104.735 65.4633 103.212 66.3549 102.224C68.7184 99.6049 71.1387 97.1502 73.6065 94.8505C74.58 93.9433 76.1046 93.9971 77.0117 94.9706ZM63.164 109.682C64.2209 110.49 64.4224 112.002 63.614 113.059C62.6145 114.366 61.6278 115.709 60.6549 117.089C59.7945 118.31 58.9784 119.571 58.2053 120.871C57.5249 122.014 56.0463 122.39 54.9027 121.71C53.7591 121.029 53.3835 119.551 54.0639 118.407C54.8983 117.004 55.7818 115.639 56.7163 114.313C57.725 112.882 58.7487 111.488 59.7864 110.132C60.5948 109.075 62.107 108.873 63.164 109.682ZM52.8549 125.797C54.0802 126.316 54.6526 127.731 54.1335 128.956C52.9694 131.703 51.9521 134.569 51.0715 137.535C50.6928 138.811 49.3516 139.538 48.076 139.159C46.8004 138.78 46.0733 137.439 46.4521 136.163C47.3796 133.04 48.4564 130.003 49.6965 127.076C50.2156 125.851 51.6297 125.278 52.8549 125.797ZM46.9932 143.594C48.2983 143.854 49.1458 145.122 48.8862 146.427C48.2963 149.393 47.8204 152.426 47.4493 155.512C47.2904 156.833 46.0906 157.775 44.7694 157.616C43.4483 157.457 42.5061 156.257 42.665 154.936C43.0496 151.738 43.5443 148.582 44.16 145.487C44.4196 144.182 45.6881 143.335 46.9932 143.594ZM44.3788 162.168C45.7075 162.242 46.7253 163.378 46.6521 164.707C46.4837 167.766 46.4048 170.855 46.4067 173.957C46.4076 175.288 45.3295 176.367 43.9989 176.368C42.6682 176.369 41.5888 175.291 41.5879 173.96C41.5859 170.774 41.6669 167.596 41.8406 164.442C41.9138 163.113 43.0502 162.095 44.3788 162.168ZM44.1178 180.935C45.4469 180.869 46.5776 181.893 46.6434 183.222C46.7966 186.317 47.0213 189.408 47.3086 192.48C47.4326 193.804 46.459 194.979 45.1341 195.103C43.8092 195.227 42.6347 194.253 42.5108 192.928C42.2172 189.791 41.9874 186.629 41.8305 183.46C41.7647 182.131 42.7888 181 44.1178 180.935ZM45.6537 199.644C46.9725 199.467 48.1853 200.393 48.3626 201.711C48.7801 204.819 49.2548 207.887 49.777 210.898C50.0043 212.209 49.1257 213.457 47.8146 213.684C46.5035 213.911 45.2563 213.033 45.029 211.722C44.4968 208.652 44.0127 205.523 43.5867 202.353C43.4095 201.034 44.3349 199.822 45.6537 199.644ZM48.6785 218.168C49.9802 217.892 51.2593 218.723 51.5353 220.025C52.1958 223.139 52.8999 226.164 53.6353 229.077C53.961 230.368 53.179 231.677 51.8888 232.003C50.5986 232.329 49.2887 231.547 48.963 230.257C48.2127 227.284 47.4946 224.199 46.8214 221.024C46.5453 219.723 47.3768 218.444 48.6785 218.168ZM53.097 236.416C54.3724 236.036 55.714 236.763 56.0935 238.038C57.0296 241.184 57.9899 244.136 58.9533 246.856C59.3975 248.11 58.7408 249.487 57.4865 249.932C56.2322 250.376 54.8552 249.719 54.4109 248.465C53.4182 245.662 52.4326 242.631 51.4748 239.412C51.0953 238.137 51.8216 236.795 53.097 236.416ZM59.1457 254.191C60.3623 253.652 61.7855 254.202 62.3244 255.418C62.9905 256.922 63.6417 258.279 64.2698 259.478C64.8872 260.657 64.4322 262.113 63.2534 262.731C62.0747 263.348 60.6186 262.893 60.0011 261.714C59.3163 260.407 58.6198 258.953 57.9184 257.37C57.3795 256.153 57.929 254.73 59.1457 254.191Z" fill="#EDEDED" fill-opacity="0.5" />
    <path fill-rule="evenodd" clip-rule="evenodd" d="M512.543 376.44C513.345 377.502 513.134 379.013 512.072 379.815C510.795 380.779 509.51 381.73 508.219 382.668C507.142 383.45 505.635 383.21 504.853 382.134C504.072 381.057 504.311 379.55 505.388 378.768C506.655 377.849 507.915 376.915 509.168 375.969C510.23 375.167 511.741 375.378 512.543 376.44ZM149.818 388.499C150.548 387.387 152.042 387.077 153.154 387.807C154.432 388.645 155.734 389.476 157.06 390.298C158.191 391 158.539 392.485 157.838 393.616C157.136 394.747 155.651 395.095 154.52 394.394C153.16 393.55 151.823 392.697 150.51 391.836C149.398 391.106 149.088 389.612 149.818 388.499ZM501.043 384.793C501.785 385.898 501.49 387.395 500.385 388.136C497.73 389.917 495.049 391.643 492.344 393.317C491.212 394.017 489.727 393.668 489.027 392.536C488.327 391.404 488.677 389.919 489.808 389.219C492.464 387.576 495.095 385.882 497.7 384.134C498.805 383.393 500.302 383.688 501.043 384.793ZM161.854 395.973C162.502 394.811 163.969 394.393 165.132 395.04C167.813 396.533 170.576 397.995 173.417 399.423C174.605 400.021 175.085 401.469 174.487 402.658C173.889 403.847 172.441 404.326 171.252 403.728C168.353 402.271 165.53 400.778 162.787 399.25C161.625 398.603 161.207 397.136 161.854 395.973ZM485.023 394.914C485.682 396.07 485.279 397.542 484.122 398.2C481.349 399.78 478.554 401.307 475.737 402.782C474.558 403.4 473.102 402.945 472.485 401.766C471.867 400.587 472.323 399.131 473.502 398.514C476.268 397.065 479.014 395.565 481.737 394.013C482.893 393.355 484.364 393.758 485.023 394.914ZM178.688 404.667C179.239 403.456 180.668 402.921 181.879 403.473C184.687 404.752 187.559 405.999 190.492 407.211C191.722 407.72 192.307 409.129 191.798 410.358C191.29 411.588 189.881 412.173 188.651 411.664C185.667 410.431 182.743 409.161 179.882 407.858C178.671 407.307 178.136 405.878 178.688 404.667ZM468.328 403.85C468.904 405.05 468.398 406.489 467.199 407.065C464.322 408.446 461.425 409.775 458.511 411.054C457.292 411.588 455.871 411.034 455.336 409.815C454.802 408.596 455.356 407.175 456.575 406.641C459.44 405.384 462.286 404.078 465.113 402.721C466.313 402.145 467.752 402.651 468.328 403.85ZM196.132 412.065C196.6 410.82 197.989 410.189 199.235 410.656C202.136 411.745 205.089 412.801 208.09 413.823C209.35 414.252 210.023 415.62 209.595 416.88C209.166 418.14 207.797 418.813 206.537 418.385C203.49 417.347 200.49 416.275 197.541 415.168C196.296 414.7 195.665 413.311 196.132 412.065ZM451.042 411.613C451.536 412.849 450.934 414.251 449.698 414.744C446.738 415.926 443.763 417.058 440.773 418.14C439.521 418.593 438.14 417.946 437.687 416.694C437.234 415.443 437.881 414.062 439.132 413.609C442.074 412.544 445.001 411.431 447.911 410.269C449.147 409.775 450.549 410.377 451.042 411.613ZM214.032 418.317C214.423 417.045 215.772 416.331 217.043 416.722C220.016 417.637 223.03 418.519 226.083 419.365C227.366 419.72 228.117 421.048 227.762 422.33C227.406 423.612 226.079 424.364 224.796 424.009C221.7 423.15 218.642 422.256 215.626 421.328C214.354 420.937 213.64 419.588 214.032 418.317ZM232.257 423.51C232.578 422.218 233.884 421.431 235.176 421.751C238.194 422.5 241.246 423.215 244.329 423.894C245.628 424.18 246.45 425.466 246.163 426.765C245.877 428.065 244.592 428.886 243.292 428.6C240.168 427.912 237.075 427.187 234.015 426.428C232.724 426.108 231.937 424.801 232.257 423.51ZM433.287 418.207C433.699 419.473 433.008 420.833 431.743 421.245C428.714 422.234 425.671 423.174 422.618 424.065C421.341 424.439 420.003 423.706 419.63 422.428C419.257 421.151 419.99 419.813 421.267 419.44C424.273 418.562 427.267 417.637 430.249 416.664C431.514 416.252 432.874 416.942 433.287 418.207ZM250.719 427.707C250.972 426.401 252.236 425.546 253.542 425.799C256.605 426.391 259.695 426.949 262.809 427.469C264.121 427.689 265.007 428.931 264.788 430.243C264.568 431.556 263.326 432.442 262.014 432.222C258.86 431.695 255.73 431.13 252.627 430.53C251.321 430.277 250.467 429.013 250.719 427.707ZM415.142 423.665C415.476 424.953 414.703 426.268 413.415 426.602C410.333 427.402 407.241 428.155 404.143 428.861C402.845 429.157 401.554 428.345 401.258 427.047C400.962 425.75 401.774 424.458 403.072 424.163C406.124 423.467 409.169 422.726 412.205 421.938C413.493 421.604 414.808 422.377 415.142 423.665ZM269.397 430.955C269.584 429.637 270.803 428.72 272.121 428.907C275.214 429.345 278.329 429.747 281.462 430.112C282.784 430.266 283.731 431.462 283.577 432.784C283.423 434.106 282.227 435.053 280.905 434.899C277.732 434.529 274.577 434.122 271.445 433.678C270.127 433.492 269.21 432.272 269.397 430.955ZM396.706 428.015C396.964 429.321 396.115 430.588 394.809 430.846C391.685 431.464 388.555 432.036 385.421 432.564C384.109 432.785 382.866 431.9 382.645 430.588C382.424 429.276 383.308 428.033 384.621 427.812C387.71 427.292 390.795 426.728 393.875 426.119C395.18 425.861 396.448 426.71 396.706 428.015ZM288.198 433.265C288.319 431.939 289.491 430.963 290.817 431.085C293.929 431.37 297.057 431.617 300.199 431.827C301.527 431.916 302.531 433.064 302.443 434.392C302.354 435.719 301.206 436.724 299.878 436.635C296.696 436.423 293.529 436.172 290.377 435.884C289.052 435.762 288.076 434.59 288.198 433.265ZM378.043 431.297C378.228 432.615 377.309 433.833 375.991 434.017C372.838 434.458 369.684 434.856 366.53 435.211C365.207 435.359 364.015 434.408 363.866 433.085C363.717 431.763 364.669 430.571 365.991 430.422C369.103 430.072 372.214 429.68 375.323 429.245C376.641 429.06 377.859 429.979 378.043 431.297ZM307.095 434.644C307.15 433.315 308.273 432.282 309.603 432.338C312.731 432.469 315.871 432.562 319.02 432.616C320.35 432.638 321.411 433.735 321.388 435.066C321.365 436.396 320.268 437.456 318.938 437.434C315.748 437.38 312.569 437.285 309.401 437.153C308.072 437.097 307.039 435.974 307.095 434.644ZM359.235 433.543C359.348 434.869 358.366 436.036 357.04 436.149C353.865 436.421 350.692 436.65 347.524 436.838C346.195 436.917 345.055 435.904 344.976 434.575C344.897 433.247 345.91 432.106 347.239 432.028C350.366 431.842 353.497 431.616 356.629 431.348C357.955 431.235 359.122 432.218 359.235 433.543ZM326.039 435.087C326.028 433.756 327.098 432.669 328.429 432.658C331.557 432.633 334.694 432.568 337.836 432.463C339.166 432.419 340.28 433.461 340.324 434.791C340.369 436.12 339.327 437.235 337.997 437.279C334.814 437.386 331.637 437.451 328.467 437.477C327.137 437.487 326.049 436.417 326.039 435.087Z" fill="#EDEDED" fill-opacity="0.5" />
    <path d="M453.888 363.267C454.708 364.065 454.909 364.997 454.493 366.063C454.077 367.129 453.285 367.951 452.359 368.151L363.416 387.403L313.064 401.228C309.734 402.274 306.376 401.7 303.368 399.749C300.426 398.109 298.519 395.27 297.779 391.852C297.039 388.435 297.602 385.06 299.602 382.351C301.602 379.641 304.421 377.73 307.818 376.995L356.292 369.43L355.889 367.566C355.553 366.012 356.519 364.502 357.996 363.857C432.327 338.337 453.31 362.091 453.888 363.267ZM304.867 385.765C302.867 388.474 303.809 392.824 306.75 394.464C308.254 395.439 309.933 395.726 311.41 395.081L358.982 381.857L357.57 375.333L308.787 382.965C307.31 383.61 305.901 384.565 304.867 385.765ZM362.671 369.025L363.141 371.2L365.159 380.521L444.22 363.408C435.154 358.865 412.109 352.47 362.671 369.025Z" fill="#EDEDED" />
    <path d="M313.855 63.2505L340.272 38.873C341.471 37.8062 341.811 35.7749 340.523 34.3281C339.45 33.1224 337.178 32.9834 335.98 34.0502L311.72 56.5076L309.144 53.6139L333.833 31.6388C335.032 30.572 335.372 28.5407 334.084 27.0939C333.011 25.8882 330.979 25.5359 329.541 26.816L305.066 49.0322L302.061 45.6563L326.965 23.9223C328.164 22.8555 328.504 20.8242 327.216 19.3774C326.143 18.1717 324.111 17.8194 322.672 19.0995L297.769 40.8335L295.193 37.9398L320.072 16.6603C321.27 15.5936 321.61 13.5622 320.322 12.1154C319.249 10.9097 317.217 10.5574 315.779 11.8375L288.958 35.2783L281.767 41.6788C280.089 43.1722 279.08 44.9346 278.955 47.2071L277.785 56.028C277.52 56.6958 277.255 57.3637 276.776 57.7904L211.803 111.731C209.166 114.078 207.149 117.603 206.948 121.239C206.533 124.634 207.72 127.898 210.081 130.551C212.442 133.204 215.547 134.762 218.967 134.743C222.602 134.965 226.097 133.583 228.974 131.022L290.083 72.741C290.562 72.3143 291.256 72.1288 291.95 71.9432L300.847 71.8034C302.904 71.7012 304.987 71.1445 306.664 69.651L313.855 63.2505ZM302.347 65.2827C301.867 65.7094 301.173 65.895 300.719 65.8672L291.607 65.7659C289.336 65.627 287.228 66.6381 285.55 68.1316L224.441 126.413C223.003 127.693 221.136 128.491 219.079 128.593C215.444 128.371 212.654 125.236 213.069 121.841C213.169 120.023 214.178 118.261 215.856 116.767L280.829 62.8265C282.506 61.3331 283.755 59.3573 283.88 57.0849L285.051 48.264C285.315 47.5961 285.341 47.1417 285.82 46.715L290.614 42.4479L295.336 47.753L302.419 55.7107L307.141 61.0157L302.347 65.2827Z" fill="#EDEDED" />
    <path d="M340.995 146.6C298.312 146.6 263.533 181.379 263.533 224.062C263.533 266.744 298.312 301.523 340.995 301.523C383.677 301.523 418.456 266.744 418.456 224.062C418.456 181.379 383.677 146.6 340.995 146.6ZM340.995 291.511C303.581 291.511 273.545 261.475 273.545 224.062C273.545 186.648 304.108 156.612 340.995 156.612C378.408 156.612 408.444 186.648 408.444 224.062C408.444 261.475 378.408 291.511 340.995 291.511Z" fill="#EDEDED" />
    <path d="M325.063 201.289C325.063 205.064 322.002 208.125 318.227 208.125C314.451 208.125 311.391 205.064 311.391 201.289C311.391 197.513 314.451 194.453 318.227 194.453C322.002 194.453 325.063 197.513 325.063 201.289Z" fill="#EDEDED" />
    <path d="M370.637 201.289C370.637 205.064 367.576 208.125 363.801 208.125C360.025 208.125 356.965 205.064 356.965 201.289C356.965 197.513 360.025 194.453 363.801 194.453C367.576 194.453 370.637 197.513 370.637 201.289Z" fill="#EDEDED" />
    <path fill-rule="evenodd" clip-rule="evenodd" d="M336.872 246.391C330.156 247.614 324.666 251.885 321.753 255.446C320.159 257.394 317.288 257.681 315.34 256.088C313.392 254.494 313.104 251.623 314.698 249.675C318.621 244.88 325.892 239.125 335.24 237.424C344.912 235.663 356.065 238.38 367.022 249.338C368.802 251.118 368.802 254.003 367.022 255.783C365.242 257.563 362.357 257.563 360.577 255.783C351.482 246.688 343.266 245.227 336.872 246.391Z" fill="#EDEDED" />
    <path d="M341.45 123C285.941 123 240.748 167.923 240.748 223.1C240.748 278.277 285.941 323.2 341.45 323.2C396.959 323.2 442.151 278.277 442.151 223.1C442.643 167.923 396.959 123 341.45 123ZM341.45 313.922C290.853 313.922 250.081 273.394 250.081 223.1C250.081 172.806 290.853 132.278 341.45 132.278C392.046 132.278 432.818 172.806 432.818 223.1C432.818 273.394 392.046 313.922 341.45 313.922Z" fill="#EDEDED" />
    <path fill-rule="evenodd" clip-rule="evenodd" d="M92.9763 320.976C94.2781 319.675 96.3886 319.675 97.6904 320.976L104.5 327.786L111.31 320.976C112.611 319.675 114.722 319.675 116.024 320.976C117.325 322.278 117.325 324.389 116.024 325.69L109.214 332.5L116.024 339.31C117.325 340.611 117.325 342.722 116.024 344.024C114.722 345.325 112.611 345.325 111.31 344.024L104.5 337.214L97.6904 344.024C96.3886 345.325 94.2781 345.325 92.9763 344.024C91.6746 342.722 91.6746 340.611 92.9763 339.31L99.786 332.5L92.9763 325.69C91.6746 324.389 91.6746 322.278 92.9763 320.976Z" fill="#EDEDED" />
    <path fill-rule="evenodd" clip-rule="evenodd" d="M548.976 333.976C550.278 332.675 552.389 332.675 553.69 333.976L560.5 340.786L567.31 333.976C568.611 332.675 570.722 332.675 572.024 333.976C573.325 335.278 573.325 337.389 572.024 338.69L565.214 345.5L572.024 352.31C573.325 353.611 573.325 355.722 572.024 357.024C570.722 358.325 568.611 358.325 567.31 357.024L560.5 350.214L553.69 357.024C552.389 358.325 550.278 358.325 548.976 357.024C547.675 355.722 547.675 353.611 548.976 352.31L555.786 345.5L548.976 338.69C547.675 337.389 547.675 335.278 548.976 333.976Z" fill="#EDEDED" />
    <path d="M203.435 299V275.2H139.635V252.7L185.735 155H213.235L167.135 252.7H203.435V215.2H227.835V252.7H241.335V275.2H227.835V299H203.435Z" fill="#DEDEDE" />
    <path d="M505.435 299V275.2H441.635V252.7L487.735 155H515.235L469.135 252.7H505.435V215.2H529.835V252.7H543.335V275.2H529.835V299H505.435Z" fill="#DEDEDE" />
    <path fill-rule="evenodd" clip-rule="evenodd" d="M0.736191 82.7362C1.71778 81.7546 3.30925 81.7546 4.29084 82.7362L9.42568 87.871L14.5605 82.7362C15.5421 81.7546 17.1336 81.7546 18.1152 82.7362C19.0967 83.7178 19.0967 85.3092 18.1152 86.2908L12.9803 91.4257L18.1152 96.5605C19.0967 97.5421 19.0967 99.1336 18.1152 100.115C17.1336 101.097 15.5421 101.097 14.5605 100.115L9.42568 94.9803L4.29084 100.115C3.30925 101.097 1.71778 101.097 0.736191 100.115C-0.245397 99.1336 -0.245397 97.5421 0.736191 96.5605L5.87103 91.4257L0.736191 86.2908C-0.245397 85.3092 -0.245397 83.7178 0.736191 82.7362Z" fill="#EDEDED" />
    <path fill-rule="evenodd" clip-rule="evenodd" d="M670.736 139.736C671.718 138.755 673.309 138.755 674.291 139.736L679.426 144.871L684.561 139.736C685.542 138.755 687.134 138.755 688.115 139.736C689.097 140.718 689.097 142.309 688.115 143.291L682.98 148.426L688.115 153.561C689.097 154.542 689.097 156.134 688.115 157.115C687.134 158.097 685.542 158.097 684.561 157.115L679.426 151.98L674.291 157.115C673.309 158.097 671.718 158.097 670.736 157.115C669.755 156.134 669.755 154.542 670.736 153.561L675.871 148.426L670.736 143.291C669.755 142.309 669.755 140.718 670.736 139.736Z" fill="#EDEDED" />
    <path fill-rule="evenodd" clip-rule="evenodd" d="M409.736 0.736191C410.718 -0.245397 412.309 -0.245397 413.291 0.736191L418.426 5.87103L423.561 0.736191C424.542 -0.245397 426.134 -0.245397 427.115 0.736191C428.097 1.71778 428.097 3.30925 427.115 4.29084L421.98 9.42568L427.115 14.5605C428.097 15.5421 428.097 17.1336 427.115 18.1152C426.134 19.0967 424.542 19.0967 423.561 18.1152L418.426 12.9803L413.291 18.1152C412.309 19.0967 410.718 19.0967 409.736 18.1152C408.755 17.1336 408.755 15.5421 409.736 14.5605L414.871 9.42568L409.736 4.29084C408.755 3.30925 408.755 1.71778 409.736 0.736191Z" fill="#EDEDED" />
</svg>
