<?xml version="1.0" standalone="no"?>
<svg xmlns:xlink="http://www.w3.org/1999/xlink" id="wave" style="transform:rotate(180deg); transition: 0.3s" viewBox="0 0 1440 460" version="1.1" xmlns="http://www.w3.org/2000/svg"><defs><linearGradient id="sw-gradient-0" x1="0" x2="0" y1="1" y2="0"><stop stop-color="rgba(254, 165, 0, 1)" offset="0%"/><stop stop-color="rgba(254, 165, 0, 1)" offset="100%"/></linearGradient></defs><path style="transform:translate(0, 0px); opacity:1" fill="url(#sw-gradient-0)" d="M0,0L60,69C120,138,240,276,360,322C480,368,600,322,720,260.7C840,199,960,123,1080,115C1200,107,1320,169,1440,184C1560,199,1680,169,1800,130.3C1920,92,2040,46,2160,53.7C2280,61,2400,123,2520,145.7C2640,169,2760,153,2880,176.3C3000,199,3120,261,3240,253C3360,245,3480,169,3600,145.7C3720,123,3840,153,3960,168.7C4080,184,4200,184,4320,176.3C4440,169,4560,153,4680,161C4800,169,4920,199,5040,184C5160,169,5280,107,5400,122.7C5520,138,5640,230,5760,283.7C5880,337,6000,353,6120,368C6240,383,6360,399,6480,360.3C6600,322,6720,230,6840,207C6960,184,7080,230,7200,253C7320,276,7440,276,7560,268.3C7680,261,7800,245,7920,260.7C8040,276,8160,322,8280,291.3C8400,261,8520,153,8580,99.7L8640,46L8640,460L8580,460C8520,460,8400,460,8280,460C8160,460,8040,460,7920,460C7800,460,7680,460,7560,460C7440,460,7320,460,7200,460C7080,460,6960,460,6840,460C6720,460,6600,460,6480,460C6360,460,6240,460,6120,460C6000,460,5880,460,5760,460C5640,460,5520,460,5400,460C5280,460,5160,460,5040,460C4920,460,4800,460,4680,460C4560,460,4440,460,4320,460C4200,460,4080,460,3960,460C3840,460,3720,460,3600,460C3480,460,3360,460,3240,460C3120,460,3000,460,2880,460C2760,460,2640,460,2520,460C2400,460,2280,460,2160,460C2040,460,1920,460,1800,460C1680,460,1560,460,1440,460C1320,460,1200,460,1080,460C960,460,840,460,720,460C600,460,480,460,360,460C240,460,120,460,60,460L0,460Z"/></svg>
